<svg xmlns="http://www.w3.org/2000/svg"  width="120" zoomAndPan="magnify" viewBox="0 0 90 44.999999" height="60" preserveAspectRatio="xMidYMid meet" version="1.0"><defs><g/></defs><rect x="-9" width="108" fill="#ffffff" y="-4.5" height="53.999999" fillOpacity="1"/><rect x="-9" width="108" fill="#ffffff" y="-4.5" height="53.999999" fillOpacity="1"/><g fill="#61005d" fillOpacity="1"><g transform="translate(7.812398, 28.86169)"><g><path d="M 4.921875 -6.234375 C 5.578125 -5.90625 6.578125 -5.453125 7.421875 -4.875 C 10.078125 -3.046875 8.5625 -0.1875 6.203125 -0.1875 C 4.609375 -0.1875 2.140625 -1.4375 1.03125 -5.078125 C 0.875 -2.78125 0.59375 -1.171875 0.328125 0 C 0.8125 -0.21875 1.296875 -0.265625 1.75 -0.234375 C 2.90625 -0.15625 4.671875 0.328125 6.234375 0.328125 C 7.625 0.328125 9 0.046875 10.078125 -0.5 C 11.59375 -1.265625 12.75 -2.671875 12.75 -4.421875 C 12.734375 -7.3125 9.25 -8.390625 6.546875 -9.578125 C 2.359375 -11.421875 4.734375 -14.546875 6.484375 -14.546875 C 8.0625 -14.546875 9.90625 -13.3125 11.015625 -9.671875 C 11.15625 -11.96875 11.4375 -13.578125 11.703125 -14.75 C 11.21875 -14.53125 10.75 -14.484375 10.28125 -14.515625 C 9.140625 -14.59375 7.765625 -15.0625 6.21875 -15.0625 C 3.4375 -15.078125 0.328125 -13.734375 0.328125 -11.109375 C 0.328125 -8.640625 2.6875 -7.3125 4.921875 -6.234375 Z M 4.921875 -6.234375 "/></g></g><g transform="translate(20.550691, 28.86169)"><g><path d="M 0.5625 0 L 4.921875 0 C 3.921875 -4.0625 3.921875 -6.234375 4.921875 -10.296875 L 0.5625 -10.296875 C 1.546875 -6.234375 1.546875 -4.0625 0.5625 0 Z M 2.796875 -11.875 C 5.90625 -12.234375 5.921875 -15.703125 2.796875 -15.359375 C -0.328125 -15 -0.3125 -11.53125 2.796875 -11.875 Z M 2.796875 -11.875 "/></g></g><g transform="translate(26.133012, 28.86169)"><g><path d="M 0.5 -14.75 C 1.515625 -10.21875 1.515625 -4.53125 0.5 0 L 11.5 0 C 11.125 -2.09375 10.96875 -2.796875 10.796875 -5.078125 C 10.03125 -2.5 7.140625 -0.5 5.46875 -0.5 L 5.09375 -0.5 C 4.171875 -5.015625 4.203125 -10.328125 5.1875 -14.75 Z M 0.5 -14.75 "/></g></g><g transform="translate(37.52956, 28.86169)"><g><path d="M 5.1875 0.328125 C 8.328125 0.328125 10.078125 -2.0625 10.078125 -5.140625 C 10.078125 -8.21875 8.328125 -10.59375 5.1875 -10.59375 C 2.03125 -10.59375 0.328125 -8.21875 0.328125 -5.140625 C 0.328125 -2.0625 2.03125 0.328125 5.1875 0.328125 Z M 6.03125 -9.953125 C 8.15625 -10.203125 6.890625 -0.5625 4.453125 -0.28125 C 1.984375 0.015625 3.453125 -9.65625 6.03125 -9.953125 Z M 6.03125 -9.953125 "/></g></g><g transform="translate(47.932224, 28.86169)"><g><path d="M 1 -5.765625 C 1 -1.84375 3.90625 0.328125 6.734375 0.328125 C 10.703125 0.328125 11.984375 -2.578125 11.984375 -5.8125 C 11.984375 -12.234375 12.59375 -13.59375 13.421875 -14.75 L 9.109375 -14.75 C 10.609375 -13.5625 11.5 -11.453125 11.5 -5.8125 C 11.5 -3.609375 10.671875 -0.484375 7.953125 -0.484375 C 6.125 -0.484375 4.1875 -2.15625 4.1875 -5.8125 C 4.1875 -10.453125 4.4375 -12.484375 4.9375 -14.75 L 0.25 -14.75 C 0.78125 -12.34375 1 -10.203125 1 -5.765625 Z M 1 -5.765625 "/></g></g><g transform="translate(61.51532, 28.86169)"><g><path d="M 0.609375 -1.671875 C 1.40625 -0.3125 3.296875 0.328125 5.125 0.328125 C 6.125 0.328125 7.109375 0.125 7.875 -0.25 C 8.953125 -0.796875 9.765625 -1.8125 9.765625 -3.046875 C 9.765625 -5.828125 6.609375 -6.359375 4.640625 -7.1875 C 2.484375 -8.09375 4.4375 -10.140625 5.1875 -10.140625 C 6.390625 -10.125 6.5625 -9.359375 6.09375 -8.984375 C 5.015625 -8.0625 5.78125 -6.890625 7.296875 -7.0625 C 8.71875 -7.21875 9.390625 -8.140625 9.265625 -8.984375 C 9.09375 -10.09375 7.484375 -10.65625 5.734375 -10.65625 C 4.8125 -10.65625 3.828125 -10.484375 3 -10.171875 C 0.0625 -9.03125 0.28125 -6.203125 2.84375 -4.765625 C 3.8125 -4.25 4.921875 -3.828125 5.6875 -3.296875 C 7.5 -2.03125 6.375 -0.203125 5 -0.203125 C 4.640625 -0.203125 4.28125 -0.328125 3.921875 -0.609375 C 3.078125 -1.296875 3 -2.40625 3.921875 -3.078125 C 3.0625 -3.765625 2.296875 -4.046875 1.6875 -4.046875 C 0.46875 -4.046875 -0.09375 -2.921875 0.609375 -1.671875 Z M 0.609375 -1.671875 "/></g></g><g transform="translate(71.570123, 28.86169)"><g><path d="M 5.1875 0.328125 C 8.328125 0.328125 10.078125 -2.0625 10.078125 -5.140625 C 10.078125 -8.21875 8.328125 -10.59375 5.1875 -10.59375 C 2.03125 -10.59375 0.328125 -8.21875 0.328125 -5.140625 C 0.328125 -2.0625 2.03125 0.328125 5.1875 0.328125 Z M 6.03125 -9.953125 C 8.15625 -10.203125 6.890625 -0.5625 4.453125 -0.28125 C 1.984375 0.015625 3.453125 -9.65625 6.03125 -9.953125 Z M 6.03125 -9.953125 "/></g></g></g></svg> 