<svg xmlns="http://www.w3.org/2000/svg" xmlns:xlink="http://www.w3.org/1999/xlink" width="500" zoomAndPan="magnify" viewBox="0 0 375 374.999991" height="500" preserveAspectRatio="xMidYMid meet" version="1.0"><defs><g/><clipPath id="ed0aceea9f"><path d="M 6.425781 7.292969 L 368.574219 7.292969 L 368.574219 370.859375 L 6.425781 370.859375 Z M 6.425781 7.292969 " clip-rule="nonzero"/></clipPath><clipPath id="77d19f1d39"><path d="M 23.675781 7.292969 L 351.324219 7.292969 C 355.902344 7.292969 360.289062 9.109375 363.523438 12.34375 C 366.757812 15.578125 368.574219 19.96875 368.574219 24.542969 L 368.574219 353.320312 C 368.574219 357.894531 366.757812 362.28125 363.523438 365.519531 C 360.289062 368.753906 355.902344 370.570312 351.324219 370.570312 L 23.675781 370.570312 C 19.097656 370.570312 14.710938 368.753906 11.476562 365.519531 C 8.242188 362.28125 6.425781 357.894531 6.425781 353.320312 L 6.425781 24.542969 C 6.425781 19.96875 8.242188 15.578125 11.476562 12.34375 C 14.710938 9.109375 19.097656 7.292969 23.675781 7.292969 Z M 23.675781 7.292969 " clip-rule="nonzero"/></clipPath></defs><rect x="-37.5" width="450" fill="#ffffff" y="-37.499999" height="449.999989" fill-opacity="1"/><rect x="-37.5" width="450" fill="#ffffff" y="-37.499999" height="449.999989" fill-opacity="1"/><g clip-path="url(#ed0aceea9f)"><g clip-path="url(#77d19f1d39)"><path fill="#61005d" d="M 6.425781 7.292969 L 368.574219 7.292969 L 368.574219 370.859375 L 6.425781 370.859375 Z M 6.425781 7.292969 " fill-opacity="1" fill-rule="nonzero"/></g></g><g fill="#ffffff" fill-opacity="1"><g transform="translate(27.513225, 245.931238)"><g><path d="M 43.5 -55.078125 C 49.359375 -52.15625 58.15625 -48.1875 65.625 -43.0625 C 89.0625 -26.953125 75.734375 -1.609375 54.78125 -1.609375 C 40.71875 -1.609375 18.890625 -12.75 9.078125 -44.828125 C 7.765625 -24.609375 5.28125 -10.40625 2.9375 0 C 7.171875 -1.90625 11.421875 -2.34375 15.53125 -2.046875 C 25.640625 -1.3125 41.3125 2.9375 55.078125 2.9375 C 67.390625 2.9375 79.546875 0.4375 89.0625 -4.390625 C 102.546875 -11.140625 112.640625 -23.578125 112.640625 -39.109375 C 112.5 -64.59375 81.734375 -74.125 57.859375 -84.671875 C 20.796875 -100.921875 41.890625 -128.609375 57.28125 -128.609375 C 71.34375 -128.609375 87.59375 -117.625 97.40625 -85.546875 C 98.578125 -105.765625 101.078125 -119.96875 103.421875 -130.375 C 99.171875 -128.46875 95.0625 -128.03125 90.828125 -128.328125 C 80.859375 -129.046875 68.703125 -133.15625 54.9375 -133.15625 C 30.328125 -133.296875 2.9375 -121.4375 2.9375 -98.140625 C 2.9375 -76.3125 23.734375 -64.59375 43.5 -55.078125 Z M 43.5 -55.078125 "/></g></g></g><g fill="#ffffff" fill-opacity="1"><g transform="translate(159.978143, 304.49998)"><g><path d="M 4.390625 -130.375 C 13.328125 -90.375 13.328125 -39.984375 4.390625 0 L 101.65625 0 C 98.296875 -18.453125 96.96875 -24.75 95.515625 -44.828125 C 88.625 -22.125 63.140625 -4.390625 48.34375 -4.390625 L 44.96875 -4.390625 C 36.921875 -44.390625 37.203125 -91.265625 45.84375 -130.375 Z M 4.390625 -130.375 "/></g></g></g><g fill="#ffffff" fill-opacity="1"><g transform="translate(246.107801, 245.931238)"><g><path d="M 8.796875 -50.984375 C 8.796875 -16.265625 34.578125 2.9375 59.46875 2.9375 C 94.625 2.9375 105.90625 -22.859375 105.90625 -51.421875 C 105.90625 -108.109375 111.328125 -120.125 118.65625 -130.375 L 80.5625 -130.375 C 93.75 -119.828125 101.65625 -101.21875 101.65625 -51.421875 C 101.65625 -31.9375 94.34375 -4.25 70.3125 -4.25 C 54.203125 -4.25 37.0625 -19.046875 37.0625 -51.421875 C 37.0625 -92.4375 39.265625 -110.296875 43.65625 -130.375 L 2.203125 -130.375 C 6.890625 -109.125 8.796875 -90.234375 8.796875 -50.984375 Z M 8.796875 -50.984375 "/></g></g></g></svg>