<svg xmlns="http://www.w3.org/2000/svg" xmlns:xlink="http://www.w3.org/1999/xlink" width="120" zoomAndPan="magnify" viewBox="0 0 90 44.999999" height="60" preserveAspectRatio="xMidYMid meet" version="1.0"><defs><g/></defs><g fill="#ffffff" fill-opacity="1"><g transform="translate(7.921876, 28.626385)"><g><path d="M 4.921875 -6.21875 C 4.359375 -6.488281 3.804688 -6.78125 3.265625 -7.09375 C 2.722656 -7.40625 2.226562 -7.75 1.78125 -8.125 C 1.34375 -8.507812 0.988281 -8.945312 0.71875 -9.4375 C 0.457031 -9.925781 0.328125 -10.476562 0.328125 -11.09375 C 0.328125 -11.75 0.5 -12.320312 0.84375 -12.8125 C 1.195312 -13.3125 1.65625 -13.726562 2.21875 -14.0625 C 2.789062 -14.394531 3.425781 -14.640625 4.125 -14.796875 C 4.820312 -14.960938 5.515625 -15.046875 6.203125 -15.046875 C 6.992188 -15.046875 7.726562 -14.960938 8.40625 -14.796875 C 9.082031 -14.640625 9.703125 -14.539062 10.265625 -14.5 C 10.503906 -14.488281 10.738281 -14.492188 10.96875 -14.515625 C 11.207031 -14.546875 11.445312 -14.617188 11.6875 -14.734375 C 11.550781 -14.148438 11.421875 -13.445312 11.296875 -12.625 C 11.171875 -11.800781 11.078125 -10.816406 11.015625 -9.671875 C 10.648438 -10.878906 10.210938 -11.835938 9.703125 -12.546875 C 9.191406 -13.253906 8.65625 -13.757812 8.09375 -14.0625 C 7.539062 -14.375 7 -14.53125 6.46875 -14.53125 C 6.1875 -14.53125 5.894531 -14.453125 5.59375 -14.296875 C 5.300781 -14.140625 5.035156 -13.925781 4.796875 -13.65625 C 4.554688 -13.394531 4.382812 -13.09375 4.28125 -12.75 C 4.175781 -12.40625 4.171875 -12.046875 4.265625 -11.671875 C 4.367188 -11.296875 4.597656 -10.925781 4.953125 -10.5625 C 5.316406 -10.207031 5.847656 -9.875 6.546875 -9.5625 C 7.078125 -9.320312 7.628906 -9.082031 8.203125 -8.84375 C 8.785156 -8.613281 9.34375 -8.359375 9.875 -8.078125 C 10.40625 -7.796875 10.882812 -7.484375 11.3125 -7.140625 C 11.75 -6.796875 12.09375 -6.398438 12.34375 -5.953125 C 12.601562 -5.503906 12.734375 -4.992188 12.734375 -4.421875 C 12.734375 -3.546875 12.476562 -2.769531 11.96875 -2.09375 C 11.457031 -1.414062 10.820312 -0.882812 10.0625 -0.5 C 9.519531 -0.21875 8.914062 -0.0078125 8.25 0.125 C 7.59375 0.257812 6.914062 0.328125 6.21875 0.328125 C 5.707031 0.328125 5.179688 0.285156 4.640625 0.203125 C 4.097656 0.117188 3.578125 0.03125 3.078125 -0.0625 C 2.578125 -0.15625 2.132812 -0.210938 1.75 -0.234375 C 1.519531 -0.253906 1.285156 -0.25 1.046875 -0.21875 C 0.816406 -0.1875 0.578125 -0.113281 0.328125 0 C 0.460938 -0.582031 0.59375 -1.285156 0.71875 -2.109375 C 0.84375 -2.941406 0.945312 -3.925781 1.03125 -5.0625 C 1.300781 -4.15625 1.644531 -3.390625 2.0625 -2.765625 C 2.488281 -2.148438 2.941406 -1.648438 3.421875 -1.265625 C 3.910156 -0.890625 4.394531 -0.613281 4.875 -0.4375 C 5.351562 -0.269531 5.789062 -0.1875 6.1875 -0.1875 C 6.664062 -0.1875 7.09375 -0.285156 7.46875 -0.484375 C 7.851562 -0.691406 8.164062 -0.96875 8.40625 -1.3125 C 8.644531 -1.65625 8.78125 -2.03125 8.8125 -2.4375 C 8.851562 -2.84375 8.765625 -3.257812 8.546875 -3.6875 C 8.328125 -4.113281 7.953125 -4.507812 7.421875 -4.875 C 6.992188 -5.15625 6.550781 -5.410156 6.09375 -5.640625 C 5.632812 -5.867188 5.242188 -6.0625 4.921875 -6.21875 Z M 4.921875 -6.21875 "/></g></g></g><g fill="#ffffff" fill-opacity="1"><g transform="translate(20.656208, 28.626385)"><g><path d="M 0.5625 0 C 0.800781 -1.007812 0.984375 -1.925781 1.109375 -2.75 C 1.234375 -3.570312 1.296875 -4.367188 1.296875 -5.140625 C 1.296875 -5.910156 1.234375 -6.707031 1.109375 -7.53125 C 0.984375 -8.351562 0.800781 -9.269531 0.5625 -10.28125 L 4.921875 -10.28125 C 4.671875 -9.269531 4.484375 -8.351562 4.359375 -7.53125 C 4.234375 -6.707031 4.171875 -5.910156 4.171875 -5.140625 C 4.171875 -4.367188 4.234375 -3.570312 4.359375 -2.75 C 4.484375 -1.925781 4.671875 -1.007812 4.921875 0 Z M 2.796875 -11.875 C 2.179688 -11.800781 1.6875 -11.859375 1.3125 -12.046875 C 0.9375 -12.234375 0.679688 -12.492188 0.546875 -12.828125 C 0.421875 -13.160156 0.421875 -13.503906 0.546875 -13.859375 C 0.671875 -14.222656 0.921875 -14.539062 1.296875 -14.8125 C 1.671875 -15.09375 2.171875 -15.269531 2.796875 -15.34375 C 3.410156 -15.414062 3.90625 -15.351562 4.28125 -15.15625 C 4.65625 -14.957031 4.90625 -14.691406 5.03125 -14.359375 C 5.15625 -14.035156 5.15625 -13.691406 5.03125 -13.328125 C 4.90625 -12.972656 4.65625 -12.65625 4.28125 -12.375 C 3.90625 -12.101562 3.410156 -11.9375 2.796875 -11.875 Z M 2.796875 -11.875 "/></g></g></g><g fill="#ffffff" fill-opacity="1"><g transform="translate(26.236793, 28.626385)"><g><path d="M 0.5 -14.734375 L 5.1875 -14.734375 C 4.863281 -13.265625 4.644531 -11.71875 4.53125 -10.09375 C 4.414062 -8.476562 4.40625 -6.851562 4.5 -5.21875 C 4.59375 -3.582031 4.785156 -2.007812 5.078125 -0.5 L 5.46875 -0.5 C 5.882812 -0.5 6.359375 -0.613281 6.890625 -0.84375 C 7.421875 -1.070312 7.945312 -1.394531 8.46875 -1.8125 C 8.988281 -2.238281 9.457031 -2.726562 9.875 -3.28125 C 10.289062 -3.832031 10.597656 -4.425781 10.796875 -5.0625 C 10.835938 -4.5 10.875 -4.015625 10.90625 -3.609375 C 10.945312 -3.203125 10.992188 -2.820312 11.046875 -2.46875 C 11.109375 -2.113281 11.171875 -1.742188 11.234375 -1.359375 C 11.304688 -0.972656 11.390625 -0.519531 11.484375 0 L 0.5 0 C 0.75 -1.125 0.9375 -2.3125 1.0625 -3.5625 C 1.195312 -4.820312 1.265625 -6.085938 1.265625 -7.359375 C 1.265625 -8.640625 1.195312 -9.90625 1.0625 -11.15625 C 0.9375 -12.414062 0.75 -13.609375 0.5 -14.734375 Z M 0.5 -14.734375 "/></g></g></g><g fill="#ffffff" fill-opacity="1"><g transform="translate(37.629798, 28.626385)"><g><path d="M 5.1875 0.328125 C 4.132812 0.328125 3.242188 0.0859375 2.515625 -0.390625 C 1.796875 -0.878906 1.25 -1.535156 0.875 -2.359375 C 0.507812 -3.179688 0.328125 -4.101562 0.328125 -5.125 C 0.328125 -6.15625 0.507812 -7.082031 0.875 -7.90625 C 1.25 -8.726562 1.796875 -9.378906 2.515625 -9.859375 C 3.242188 -10.335938 4.132812 -10.578125 5.1875 -10.578125 C 6.226562 -10.578125 7.113281 -10.335938 7.84375 -9.859375 C 8.570312 -9.378906 9.125 -8.726562 9.5 -7.90625 C 9.875 -7.082031 10.0625 -6.15625 10.0625 -5.125 C 10.0625 -4.101562 9.875 -3.179688 9.5 -2.359375 C 9.125 -1.535156 8.570312 -0.878906 7.84375 -0.390625 C 7.113281 0.0859375 6.226562 0.328125 5.1875 0.328125 Z M 6.03125 -9.953125 C 5.664062 -9.910156 5.320312 -9.695312 5 -9.3125 C 4.675781 -8.925781 4.394531 -8.4375 4.15625 -7.84375 C 3.914062 -7.257812 3.710938 -6.617188 3.546875 -5.921875 C 3.390625 -5.234375 3.28125 -4.546875 3.21875 -3.859375 C 3.164062 -3.179688 3.171875 -2.5625 3.234375 -2 C 3.296875 -1.445312 3.425781 -1.007812 3.625 -0.6875 C 3.820312 -0.375 4.097656 -0.238281 4.453125 -0.28125 C 4.804688 -0.320312 5.128906 -0.53125 5.421875 -0.90625 C 5.710938 -1.28125 5.972656 -1.765625 6.203125 -2.359375 C 6.429688 -2.953125 6.617188 -3.59375 6.765625 -4.28125 C 6.910156 -4.96875 7.007812 -5.65625 7.0625 -6.34375 C 7.125 -7.03125 7.125 -7.648438 7.0625 -8.203125 C 7.007812 -8.765625 6.894531 -9.203125 6.71875 -9.515625 C 6.550781 -9.835938 6.320312 -9.984375 6.03125 -9.953125 Z M 6.03125 -9.953125 "/></g></g></g><g fill="#ffffff" fill-opacity="1"><g transform="translate(48.029226, 28.626385)"><g><path d="M 1 -5.765625 C 1 -6.878906 0.984375 -7.859375 0.953125 -8.703125 C 0.921875 -9.554688 0.875 -10.320312 0.8125 -11 C 0.757812 -11.6875 0.6875 -12.332031 0.59375 -12.9375 C 0.5 -13.539062 0.382812 -14.140625 0.25 -14.734375 L 4.9375 -14.734375 C 4.8125 -14.171875 4.703125 -13.601562 4.609375 -13.03125 C 4.515625 -12.457031 4.4375 -11.832031 4.375 -11.15625 C 4.3125 -10.488281 4.265625 -9.71875 4.234375 -8.84375 C 4.203125 -7.976562 4.1875 -6.96875 4.1875 -5.8125 C 4.1875 -4.582031 4.375 -3.578125 4.75 -2.796875 C 5.125 -2.015625 5.597656 -1.429688 6.171875 -1.046875 C 6.742188 -0.671875 7.335938 -0.484375 7.953125 -0.484375 C 8.628906 -0.484375 9.191406 -0.648438 9.640625 -0.984375 C 10.097656 -1.328125 10.460938 -1.769531 10.734375 -2.3125 C 11.003906 -2.851562 11.195312 -3.429688 11.3125 -4.046875 C 11.425781 -4.671875 11.484375 -5.257812 11.484375 -5.8125 C 11.484375 -7.226562 11.425781 -8.429688 11.3125 -9.421875 C 11.207031 -10.410156 11.050781 -11.25 10.84375 -11.9375 C 10.644531 -12.625 10.398438 -13.1875 10.109375 -13.625 C 9.816406 -14.0625 9.484375 -14.429688 9.109375 -14.734375 L 13.40625 -14.734375 C 13.238281 -14.503906 13.082031 -14.25 12.9375 -13.96875 C 12.800781 -13.695312 12.671875 -13.351562 12.546875 -12.9375 C 12.421875 -12.519531 12.316406 -12.003906 12.234375 -11.390625 C 12.148438 -10.773438 12.082031 -10.007812 12.03125 -9.09375 C 11.988281 -8.1875 11.96875 -7.09375 11.96875 -5.8125 C 11.96875 -5.007812 11.878906 -4.238281 11.703125 -3.5 C 11.523438 -2.757812 11.234375 -2.097656 10.828125 -1.515625 C 10.429688 -0.941406 9.894531 -0.488281 9.21875 -0.15625 C 8.550781 0.164062 7.71875 0.328125 6.71875 0.328125 C 6.007812 0.328125 5.316406 0.195312 4.640625 -0.0625 C 3.960938 -0.332031 3.347656 -0.722656 2.796875 -1.234375 C 2.242188 -1.753906 1.804688 -2.390625 1.484375 -3.140625 C 1.160156 -3.898438 1 -4.773438 1 -5.765625 Z M 1 -5.765625 "/></g></g></g><g fill="#ffffff" fill-opacity="1"><g transform="translate(61.608099, 28.626385)"><g><path d="M 0.609375 -1.671875 C 0.378906 -2.085938 0.273438 -2.472656 0.296875 -2.828125 C 0.328125 -3.191406 0.460938 -3.484375 0.703125 -3.703125 C 0.953125 -3.929688 1.28125 -4.046875 1.6875 -4.046875 C 2 -4.046875 2.34375 -3.96875 2.71875 -3.8125 C 3.09375 -3.664062 3.492188 -3.421875 3.921875 -3.078125 C 3.609375 -2.859375 3.40625 -2.597656 3.3125 -2.296875 C 3.21875 -1.992188 3.226562 -1.691406 3.34375 -1.390625 C 3.457031 -1.097656 3.648438 -0.835938 3.921875 -0.609375 C 4.265625 -0.335938 4.625 -0.203125 5 -0.203125 C 5.34375 -0.203125 5.65625 -0.300781 5.9375 -0.5 C 6.21875 -0.695312 6.414062 -0.953125 6.53125 -1.265625 C 6.65625 -1.585938 6.65625 -1.925781 6.53125 -2.28125 C 6.414062 -2.644531 6.128906 -2.984375 5.671875 -3.296875 C 5.296875 -3.554688 4.851562 -3.800781 4.34375 -4.03125 C 3.832031 -4.257812 3.332031 -4.503906 2.84375 -4.765625 C 2.207031 -5.117188 1.71875 -5.539062 1.375 -6.03125 C 1.039062 -6.53125 0.867188 -7.039062 0.859375 -7.5625 C 0.847656 -8.09375 1.019531 -8.585938 1.375 -9.046875 C 1.726562 -9.503906 2.269531 -9.878906 3 -10.171875 C 3.414062 -10.316406 3.859375 -10.429688 4.328125 -10.515625 C 4.796875 -10.597656 5.265625 -10.640625 5.734375 -10.640625 C 6.316406 -10.640625 6.863281 -10.578125 7.375 -10.453125 C 7.894531 -10.328125 8.320312 -10.140625 8.65625 -9.890625 C 9 -9.648438 9.195312 -9.34375 9.25 -8.96875 C 9.320312 -8.550781 9.191406 -8.148438 8.859375 -7.765625 C 8.523438 -7.378906 8 -7.140625 7.28125 -7.046875 C 6.789062 -6.992188 6.390625 -7.066406 6.078125 -7.265625 C 5.765625 -7.460938 5.597656 -7.722656 5.578125 -8.046875 C 5.566406 -8.367188 5.738281 -8.675781 6.09375 -8.96875 C 6.25 -9.101562 6.328125 -9.257812 6.328125 -9.4375 C 6.335938 -9.613281 6.25 -9.769531 6.0625 -9.90625 C 5.882812 -10.050781 5.59375 -10.125 5.1875 -10.125 C 5.039062 -10.125 4.859375 -10.050781 4.640625 -9.90625 C 4.429688 -9.769531 4.234375 -9.582031 4.046875 -9.34375 C 3.867188 -9.113281 3.742188 -8.867188 3.671875 -8.609375 C 3.609375 -8.347656 3.644531 -8.085938 3.78125 -7.828125 C 3.914062 -7.578125 4.203125 -7.363281 4.640625 -7.1875 C 5.035156 -7.019531 5.460938 -6.851562 5.921875 -6.6875 C 6.378906 -6.53125 6.832031 -6.351562 7.28125 -6.15625 C 7.738281 -5.96875 8.148438 -5.734375 8.515625 -5.453125 C 8.890625 -5.179688 9.1875 -4.847656 9.40625 -4.453125 C 9.632812 -4.066406 9.75 -3.597656 9.75 -3.046875 C 9.75 -2.429688 9.566406 -1.878906 9.203125 -1.390625 C 8.847656 -0.898438 8.398438 -0.519531 7.859375 -0.25 C 7.484375 -0.0625 7.054688 0.078125 6.578125 0.171875 C 6.109375 0.273438 5.617188 0.328125 5.109375 0.328125 C 4.503906 0.328125 3.90625 0.253906 3.3125 0.109375 C 2.726562 -0.0234375 2.195312 -0.242188 1.71875 -0.546875 C 1.25 -0.847656 0.878906 -1.222656 0.609375 -1.671875 Z M 0.609375 -1.671875 "/></g></g></g><g fill="#ffffff" fill-opacity="1"><g transform="translate(71.659776, 28.626385)"><g><path d="M 5.1875 0.328125 C 4.132812 0.328125 3.242188 0.0859375 2.515625 -0.390625 C 1.796875 -0.878906 1.25 -1.535156 0.875 -2.359375 C 0.507812 -3.179688 0.328125 -4.101562 0.328125 -5.125 C 0.328125 -6.15625 0.507812 -7.082031 0.875 -7.90625 C 1.25 -8.726562 1.796875 -9.378906 2.515625 -9.859375 C 3.242188 -10.335938 4.132812 -10.578125 5.1875 -10.578125 C 6.226562 -10.578125 7.113281 -10.335938 7.84375 -9.859375 C 8.570312 -9.378906 9.125 -8.726562 9.5 -7.90625 C 9.875 -7.082031 10.0625 -6.15625 10.0625 -5.125 C 10.0625 -4.101562 9.875 -3.179688 9.5 -2.359375 C 9.125 -1.535156 8.570312 -0.878906 7.84375 -0.390625 C 7.113281 0.0859375 6.226562 0.328125 5.1875 0.328125 Z M 6.03125 -9.953125 C 5.664062 -9.910156 5.320312 -9.695312 5 -9.3125 C 4.675781 -8.925781 4.394531 -8.4375 4.15625 -7.84375 C 3.914062 -7.257812 3.710938 -6.617188 3.546875 -5.921875 C 3.390625 -5.234375 3.28125 -4.546875 3.21875 -3.859375 C 3.164062 -3.179688 3.171875 -2.5625 3.234375 -2 C 3.296875 -1.445312 3.425781 -1.007812 3.625 -0.6875 C 3.820312 -0.375 4.097656 -0.238281 4.453125 -0.28125 C 4.804688 -0.320312 5.128906 -0.53125 5.421875 -0.90625 C 5.710938 -1.28125 5.972656 -1.765625 6.203125 -2.359375 C 6.429688 -2.953125 6.617188 -3.59375 6.765625 -4.28125 C 6.910156 -4.96875 7.007812 -5.65625 7.0625 -6.34375 C 7.125 -7.03125 7.125 -7.648438 7.0625 -8.203125 C 7.007812 -8.765625 6.894531 -9.203125 6.71875 -9.515625 C 6.550781 -9.835938 6.320312 -9.984375 6.03125 -9.953125 Z M 6.03125 -9.953125 "/></g></g></g></svg>